<?xml version="1.0" encoding="utf-8"?>
<svg version="1.1" xmlns:xlink="http://www.w3.org/1999/xlink" width="100px" height="100px" xmlns="http://www.w3.org/2000/svg">
  <g transform="matrix(1 0 0 1 -587 -185 )">
    <path d="M 69.86607142857143 87.97433035714286  C 76.00446428571429 84.71912202380953  81.04538690476191 80.30133928571428  84.98883928571429 74.72098214285714  C 84.17038690476191 68.95461309523809  82.54278273809524 64.16480654761905  80.10602678571429 60.3515625  C 77.66927083333334 56.538318452380956  74.2373511904762 54.33407738095237  69.81026785714286 53.73883928571428  C 67.31770833333334 56.49181547619047  64.35081845238095 58.64025297619047  60.90959821428571 60.18415178571428  C 57.46837797619049 61.728050595238095  53.83184523809524 62.5  50 62.5  C 46.16815476190476 62.5  42.531622023809526 61.728050595238095  39.090401785714285 60.18415178571428  C 35.64918154761905 58.64025297619047  32.68229166666667 56.49181547619047  30.189732142857146 53.73883928571428  C 25.762648809523807 54.33407738095237  22.330729166666668 56.538318452380956  19.893973214285715 60.3515625  C 17.457217261904763 64.16480654761905  15.829613095238097 68.95461309523809  15.011160714285715 74.72098214285714  C 18.954613095238095 80.30133928571428  23.995535714285715 84.71912202380953  30.13392857142857 87.97433035714286  C 36.27232142857143 91.22953869047619  42.89434523809524 92.85714285714286  50 92.85714285714286  C 57.105654761904766 92.85714285714286  63.72767857142857 91.22953869047619  69.86607142857143 87.97433035714286  Z M 65.15066964285714 50.86495535714286  C 69.3359375 46.6796875  71.42857142857143 41.62946428571429  71.42857142857143 35.71428571428571  C 71.42857142857143 29.79910714285714  69.3359375 24.74888392857143  65.15066964285714 20.56361607142857  C 60.96540178571429 16.378348214285708  55.91517857142857 14.28571428571429  50 14.28571428571429  C 44.08482142857143 14.28571428571429  39.034598214285715 16.378348214285708  34.849330357142854 20.56361607142857  C 30.6640625 24.74888392857143  28.57142857142857 29.79910714285714  28.57142857142857 35.71428571428571  C 28.57142857142857 41.62946428571429  30.6640625 46.6796875  34.849330357142854 50.86495535714286  C 39.034598214285715 55.05022321428572  44.08482142857143 57.14285714285714  50 57.14285714285714  C 55.91517857142857 57.14285714285714  60.96540178571429 55.05022321428572  65.15066964285714 50.86495535714286  Z M 96.03794642857143 30.58035714285714  C 98.67931547619048 36.75595238095237  100 43.229166666666664  100 50  C 100 56.77083333333333  98.67931547619048 63.23474702380951  96.03794642857143 69.39174107142857  C 93.3965773809524 75.54873511904762  89.85305059523812 80.86867559523809  85.40736607142857 85.3515625  C 80.96168154761905 89.8344494047619  75.65104166666667 93.39657738095238  69.47544642857143 96.03794642857143  C 63.2998511904762 98.67931547619048  56.80803571428571 100  50 100  C 43.22916666666667 100  36.75595238095239 98.67931547619048  30.580357142857146 96.03794642857143  C 24.404761904761905 93.39657738095238  19.084821428571427 89.84375  14.620535714285715 85.37946428571428  C 10.15625 80.91517857142857  6.6034226190476195 75.59523809523809  3.962053571428571 69.41964285714286  C 1.3206845238095237 63.24404761904761  0 56.77083333333333  0 50  C 0 43.229166666666664  1.3206845238095237 36.75595238095237  3.962053571428571 30.58035714285714  C 6.6034226190476195 24.404761904761894  10.15625 19.08482142857143  14.620535714285715 14.62053571428571  C 19.084821428571427 10.15625  24.404761904761905 6.603422619047617  30.580357142857146 3.96205357142857  C 36.75595238095239 1.3206845238095233  43.22916666666667 0  50 0  C 56.770833333333336 0  63.24404761904763 1.3206845238095233  69.41964285714286 3.96205357142857  C 75.5952380952381 6.603422619047617  80.91517857142857 10.15625  85.37946428571429 14.62053571428571  C 89.84375000000001 19.08482142857143  93.3965773809524 24.404761904761894  96.03794642857143 30.58035714285714  Z " fill-rule="nonzero" fill="#422040" stroke="none" transform="matrix(1 0 0 1 587 185 )" />
  </g>
</svg>